<svg preserveAspectRatio="none" width="100%" height="100%" overflow="visible" style="display: block;" viewBox="0 0 63 52" fill="none" xmlns="http://www.w3.org/2000/svg">
<g id="Vector">
<path d="M53.9209 10.8964C51.9959 11.7714 49.9209 12.3464 47.7709 12.6214C49.9709 11.2964 51.6709 9.19638 52.4709 6.67138C50.3959 7.92138 48.0959 8.79638 45.6709 9.29638C43.6959 7.14638 40.9209 5.89638 37.7709 5.89638C31.8959 5.89638 27.0959 10.6964 27.0959 16.6214C27.0959 17.4714 27.1959 18.2964 27.3709 19.0714C18.4709 18.6214 10.5459 14.3464 5.27093 7.87138C4.34593 9.44638 3.82093 11.2964 3.82093 13.2464C3.82093 16.9714 5.69593 20.2714 8.59593 22.1464C6.82093 22.1464 5.17093 21.6464 3.72093 20.8964V20.9714C3.72093 26.1714 7.42093 30.5214 12.3209 31.4964C10.748 31.9287 9.09602 31.9886 7.49593 31.6714C8.17495 33.8026 9.50477 35.6674 11.2985 37.0037C13.0922 38.34 15.2595 39.0806 17.4959 39.1214C13.7051 42.1227 9.00595 43.7449 4.17093 43.7214C3.32093 43.7214 2.47093 43.6714 1.62093 43.5714C6.37093 46.6214 12.0209 48.3964 18.0709 48.3964C37.7709 48.3964 48.5959 32.0464 48.5959 17.8714C48.5959 17.3964 48.5959 16.9464 48.5709 16.4714C50.6709 14.9714 52.4709 13.0714 53.9209 10.8964Z" fill="var(--fill-0, white)"/>
<path d="M53.9012 7.12489C53.6003 8.07457 53.1849 8.9694 52.6776 9.79872C52.8868 9.71263 53.0952 9.62452 53.3006 9.53114L58.0838 7.35634L55.1688 11.7284C53.7756 13.8182 52.071 15.6774 50.0926 17.2059C50.0952 17.4326 50.0955 17.6538 50.0955 17.871C50.0955 32.6921 38.7707 49.8963 18.0711 49.8964C11.7239 49.8964 5.79366 48.0336 0.810383 44.8339L1.79573 42.0819C2.5879 42.1751 3.37977 42.2216 4.17073 42.2216H4.17855C7.47048 42.2375 10.6939 41.4312 13.5682 39.9032C12.4419 39.4987 11.3735 38.9306 10.4022 38.2069C8.35703 36.6833 6.84045 34.5568 6.06624 32.1268L5.29573 29.7059L6.03597 29.8524C3.68714 27.6213 2.22059 24.465 2.22054 20.9716V18.4315L3.9178 19.3095C2.89806 17.5213 2.32112 15.4461 2.32112 13.246C2.3212 11.0265 2.91871 8.91494 3.97737 7.1122L5.07015 5.25087L6.43343 6.92372C11.0864 12.6352 17.9068 16.5425 25.6219 17.4208C25.6049 17.1571 25.5955 16.8901 25.5955 16.621C25.5957 9.87231 31.0635 4.39638 37.7713 4.39638C41.0177 4.39647 43.9436 5.57681 46.1502 7.65029C48.1298 7.16527 49.9992 6.40943 51.6971 5.38661L55.1014 3.33583L53.9012 7.12489Z" stroke="var(--stroke-0, #175592)" stroke-opacity="0.5" stroke-width="3"/>
</g>
</svg>
