<svg preserveAspectRatio="none" width="100%" height="100%" overflow="visible" style="display: block;" viewBox="0 0 50 49" fill="none" xmlns="http://www.w3.org/2000/svg">
<path id="Vector" d="M33.7481 2.48152C41.23 2.48152 47.1485 8.37425 47.1485 15.8819C47.1484 20.4396 45.0713 24.3903 41.9356 28.2266C38.8271 32.0297 34.4234 36.0174 29.3604 40.6085L26.4854 43.2257L24.8145 44.7471L23.1446 43.2257L20.2657 40.6055V40.6046C15.2044 36.015 10.8021 32.0287 7.69441 28.2266C4.55866 24.3903 2.48165 20.4396 2.48152 15.8819C2.48152 8.37425 8.40001 2.48152 15.8819 2.48152C19.1752 2.48162 22.3397 3.67429 24.8145 5.6573C27.2895 3.67404 30.4545 2.48153 33.7481 2.48152Z" fill="var(--fill-0, white)" stroke="var(--stroke-0, #67A447)" stroke-width="4.96296"/>
</svg>
