<svg preserveAspectRatio="none" width="100%" height="100%" overflow="visible" style="display: block;" viewBox="0 0 45 46" fill="none" xmlns="http://www.w3.org/2000/svg">
<path id="Vector" d="M27.0156 1.56738L28.0967 6.9668L28.2559 7.75977L28.9932 8.08984C29.9962 8.53879 30.9504 9.09089 31.8398 9.73633L32.4961 10.2119L33.2627 9.95312L38.4805 8.1875L42.9971 16.0098L38.8594 19.6465L38.252 20.1807L38.334 20.9844C38.4463 22.079 38.4463 23.1827 38.334 24.2773L38.252 25.0811L38.8594 25.6143L42.999 29.251L38.4834 37.0732L33.2617 35.3066L32.4932 35.0469L31.8379 35.5234C30.9484 36.1697 29.9935 36.7213 28.9902 37.1709L28.2529 37.502L28.0947 38.2949L27.0156 43.6934H17.9824L16.9033 38.2949L16.7441 37.5L16.0049 37.1699C14.9965 36.7198 14.0452 36.1664 13.1592 35.5244L12.5039 35.0488L11.7373 35.3086L6.5166 37.0732L2 29.25L6.13867 25.6143L6.74609 25.0811L6.66309 24.2773C6.55074 23.1827 6.55075 22.079 6.66309 20.9844L6.74609 20.1807L6.13867 19.6465L1.99902 16.0098L6.51465 8.1875L11.7363 9.95508L12.5049 10.2148L13.1602 9.73828C14.0496 9.09212 15.0036 8.53944 16.0068 8.08984L16.7451 7.75977L16.9033 6.9668L17.9824 1.56738H27.0156ZM22.499 12.834C19.9007 12.834 17.4085 13.8659 15.5713 15.7031C13.7341 17.5404 12.7021 20.0326 12.7021 22.6309C12.7022 25.2289 13.7343 27.7204 15.5713 29.5576C17.4085 31.3949 19.9007 32.4277 22.499 32.4277C25.0973 32.4277 27.5895 31.3949 29.4268 29.5576C31.2637 27.7204 32.2958 25.2289 32.2959 22.6309C32.2959 20.0326 31.2639 17.5404 29.4268 15.7031C27.5895 13.8659 25.0973 12.834 22.499 12.834Z" fill="var(--fill-0, white)" stroke="var(--stroke-0, #EB69A9)" stroke-width="3.13498"/>
</svg>
